<svg width="21" height="23" viewBox="0 0 21 23" fill="none" xmlns="http://www.w3.org/2000/svg">
<path d="M5.16016 8.0752L7.16016 6.0752L5.16016 4.0752L3.16016 6.0752L5.16016 8.0752ZM2.16016 13.5752C1.61016 13.5752 1.13932 13.3794 0.747656 12.9877C0.35599 12.596 0.160156 12.1252 0.160156 11.5752V2.5752C0.160156 2.0252 0.35599 1.55436 0.747656 1.1627C1.13932 0.771029 1.61016 0.575195 2.16016 0.575195H18.1602C18.7102 0.575195 19.181 0.771029 19.5727 1.1627C19.9643 1.55436 20.1602 2.0252 20.1602 2.5752V11.5752C20.1602 12.1252 19.9643 12.596 19.5727 12.9877C19.181 13.3794 18.7102 13.5752 18.1602 13.5752H14.9352C15.0352 13.2419 15.1018 12.9085 15.1352 12.5752C15.1685 12.2419 15.1685 11.9085 15.1352 11.5752H18.1602V2.5752H2.16016V11.5752H5.18516C5.15182 11.9085 5.15182 12.2419 5.18516 12.5752C5.21849 12.9085 5.28516 13.2419 5.38516 13.5752H2.16016ZM14.6602 6.5752C15.0768 6.5752 15.431 6.42936 15.7227 6.1377C16.0143 5.84603 16.1602 5.49186 16.1602 5.0752C16.1602 4.65853 16.0143 4.30436 15.7227 4.0127C15.431 3.72103 15.0768 3.5752 14.6602 3.5752C14.2435 3.5752 13.8893 3.72103 13.5977 4.0127C13.306 4.30436 13.1602 4.65853 13.1602 5.0752C13.1602 5.49186 13.306 5.84603 13.5977 6.1377C13.8893 6.42936 14.2435 6.5752 14.6602 6.5752ZM3.16016 22.5752V20.4752C3.16016 19.8919 3.32266 19.3502 3.64766 18.8502C3.97266 18.3502 4.40182 17.9752 4.93516 17.7252C5.75182 17.3419 6.60182 17.0544 7.48516 16.8627C8.36849 16.671 9.26016 16.5752 10.1602 16.5752C11.0602 16.5752 11.9518 16.671 12.8352 16.8627C13.7185 17.0544 14.5685 17.3419 15.3852 17.7252C15.9185 17.9752 16.3477 18.3502 16.6727 18.8502C16.9977 19.3502 17.1602 19.8919 17.1602 20.4752V22.5752H3.16016ZM5.16016 20.5752H15.1602V20.4752C15.1602 20.2752 15.1018 20.0919 14.9852 19.9252C14.8685 19.7585 14.7185 19.6335 14.5352 19.5502C13.8352 19.2335 13.1185 18.9919 12.3852 18.8252C11.6518 18.6585 10.9102 18.5752 10.1602 18.5752C9.41016 18.5752 8.66849 18.6585 7.93516 18.8252C7.20182 18.9919 6.48516 19.2335 5.78516 19.5502C5.60182 19.6335 5.45182 19.7585 5.33516 19.9252C5.21849 20.0919 5.16016 20.2752 5.16016 20.4752V20.5752ZM10.1602 15.5752C9.19349 15.5752 8.36849 15.2335 7.68516 14.5502C7.00182 13.8669 6.66016 13.0419 6.66016 12.0752C6.66016 11.1085 7.00182 10.2835 7.68516 9.6002C8.36849 8.91686 9.19349 8.5752 10.1602 8.5752C11.1268 8.5752 11.9518 8.91686 12.6352 9.6002C13.3185 10.2835 13.6602 11.1085 13.6602 12.0752C13.6602 13.0419 13.3185 13.8669 12.6352 14.5502C11.9518 15.2335 11.1268 15.5752 10.1602 15.5752ZM10.1602 13.5752C10.5768 13.5752 10.931 13.4294 11.2227 13.1377C11.5143 12.846 11.6602 12.4919 11.6602 12.0752C11.6602 11.6585 11.5143 11.3044 11.2227 11.0127C10.931 10.721 10.5768 10.5752 10.1602 10.5752C9.74349 10.5752 9.38932 10.721 9.09766 11.0127C8.80599 11.3044 8.66016 11.6585 8.66016 12.0752C8.66016 12.4919 8.80599 12.846 9.09766 13.1377C9.38932 13.4294 9.74349 13.5752 10.1602 13.5752Z" fill="#04D9FF"/>
</svg>
