<svg width="25" height="19" viewBox="0 0 25 19" fill="none" xmlns="http://www.w3.org/2000/svg">
<path d="M12.3352 13.7332L13.7352 12.3332L10.5352 9.1332V4.5332H8.53516V9.9332L12.3352 13.7332ZM18.5352 18.0332V15.8332C19.7685 15.2499 20.7435 14.3915 21.4602 13.2582C22.1768 12.1249 22.5352 10.8832 22.5352 9.5332C22.5352 8.1832 22.1768 6.94154 21.4602 5.8082C20.7435 4.67487 19.7685 3.81654 18.5352 3.2332V1.0332C20.3518 1.66654 21.806 2.76237 22.8977 4.3207C23.9893 5.87904 24.5352 7.61654 24.5352 9.5332C24.5352 11.4499 23.9893 13.1874 22.8977 14.7457C21.806 16.304 20.3518 17.3999 18.5352 18.0332ZM9.53516 18.5332C8.28516 18.5332 7.11432 18.2957 6.02266 17.8207C4.93099 17.3457 3.98099 16.704 3.17266 15.8957C2.36432 15.0874 1.72266 14.1374 1.24766 13.0457C0.772656 11.954 0.535156 10.7832 0.535156 9.5332C0.535156 8.2832 0.772656 7.11237 1.24766 6.0207C1.72266 4.92904 2.36432 3.97904 3.17266 3.1707C3.98099 2.36237 4.93099 1.7207 6.02266 1.2457C7.11432 0.770703 8.28516 0.533203 9.53516 0.533203C10.7852 0.533203 11.956 0.770703 13.0477 1.2457C14.1393 1.7207 15.0893 2.36237 15.8977 3.1707C16.706 3.97904 17.3477 4.92904 17.8227 6.0207C18.2977 7.11237 18.5352 8.2832 18.5352 9.5332C18.5352 10.7832 18.2977 11.954 17.8227 13.0457C17.3477 14.1374 16.706 15.0874 15.8977 15.8957C15.0893 16.704 14.1393 17.3457 13.0477 17.8207C11.956 18.2957 10.7852 18.5332 9.53516 18.5332ZM9.53516 16.5332C11.4852 16.5332 13.1393 15.854 14.4977 14.4957C15.856 13.1374 16.5352 11.4832 16.5352 9.5332C16.5352 7.5832 15.856 5.92904 14.4977 4.5707C13.1393 3.21237 11.4852 2.5332 9.53516 2.5332C7.58516 2.5332 5.93099 3.21237 4.57266 4.5707C3.21432 5.92904 2.53516 7.5832 2.53516 9.5332C2.53516 11.4832 3.21432 13.1374 4.57266 14.4957C5.93099 15.854 7.58516 16.5332 9.53516 16.5332Z" fill="#04D9FF"/>
</svg>
