<svg id="visual" viewBox="0 0 1440 1024" width="1440" height="1024" xmlns="http://www.w3.org/2000/svg" xmlns:xlink="http://www.w3.org/1999/xlink" version="1.1"><rect x="0" y="0" width="1440" height="1024" fill="#152145"></rect><path d="M0 878L34.3 886.7C68.7 895.3 137.3 912.7 205.8 905.2C274.3 897.7 342.7 865.3 411.2 859.2C479.7 853 548.3 873 617 875.8C685.7 878.7 754.3 864.3 823 849.5C891.7 834.7 960.3 819.3 1028.8 817.5C1097.3 815.7 1165.7 827.3 1234.2 835.3C1302.7 843.3 1371.3 847.7 1405.7 849.8L1440 852L1440 1025L1405.7 1025C1371.3 1025 1302.7 1025 1234.2 1025C1165.7 1025 1097.3 1025 1028.8 1025C960.3 1025 891.7 1025 823 1025C754.3 1025 685.7 1025 617 1025C548.3 1025 479.7 1025 411.2 1025C342.7 1025 274.3 1025 205.8 1025C137.3 1025 68.7 1025 34.3 1025L0 1025Z" fill="#1e2f63"></path><path d="M0 943L34.3 946.7C68.7 950.3 137.3 957.7 205.8 955.2C274.3 952.7 342.7 940.3 411.2 931C479.7 921.7 548.3 915.3 617 926C685.7 936.7 754.3 964.3 823 970C891.7 975.7 960.3 959.3 1028.8 950.5C1097.3 941.7 1165.7 940.3 1234.2 932.7C1302.7 925 1371.3 911 1405.7 904L1440 897L1440 1025L1405.7 1025C1371.3 1025 1302.7 1025 1234.2 1025C1165.7 1025 1097.3 1025 1028.8 1025C960.3 1025 891.7 1025 823 1025C754.3 1025 685.7 1025 617 1025C548.3 1025 479.7 1025 411.2 1025C342.7 1025 274.3 1025 205.8 1025C137.3 1025 68.7 1025 34.3 1025L0 1025Z" fill="#2f4a9c"></path></svg>