<svg id="visual" viewBox="0 0 900 100" width="900" height="100" xmlns="http://www.w3.org/2000/svg" xmlns:xlink="http://www.w3.org/1999/xlink" version="1.1"><path d="M0 72L21.5 70.3C43 68.7 86 65.3 128.8 63.7C171.7 62 214.3 62 257.2 64.2C300 66.3 343 70.7 385.8 72.7C428.7 74.7 471.3 74.3 514.2 69.3C557 64.3 600 54.7 642.8 54C685.7 53.3 728.3 61.7 771.2 62.8C814 64 857 58 878.5 55L900 52L900 0L878.5 0C857 0 814 0 771.2 0C728.3 0 685.7 0 642.8 0C600 0 557 0 514.2 0C471.3 0 428.7 0 385.8 0C343 0 300 0 257.2 0C214.3 0 171.7 0 128.8 0C86 0 43 0 21.5 0L0 0Z" fill="#1e2f63"></path><path d="M0 32L21.5 33.8C43 35.7 86 39.3 128.8 36.8C171.7 34.3 214.3 25.7 257.2 24.8C300 24 343 31 385.8 31.5C428.7 32 471.3 26 514.2 25.8C557 25.7 600 31.3 642.8 34.2C685.7 37 728.3 37 771.2 35.2C814 33.3 857 29.7 878.5 27.8L900 26L900 0L878.5 0C857 0 814 0 771.2 0C728.3 0 685.7 0 642.8 0C600 0 557 0 514.2 0C471.3 0 428.7 0 385.8 0C343 0 300 0 257.2 0C214.3 0 171.7 0 128.8 0C86 0 43 0 21.5 0L0 0Z" fill="#2f4a9c"></path></svg>