<svg id="visual" viewBox="0 0 900 100" width="900" height="100" xmlns="http://www.w3.org/2000/svg" xmlns:xlink="http://www.w3.org/1999/xlink" version="1.1"><path d="M0 31L21.5 30C43 29 86 27 128.8 31C171.7 35 214.3 45 257.2 44.3C300 43.7 343 32.3 385.8 28.3C428.7 24.3 471.3 27.7 514.2 27.7C557 27.7 600 24.3 642.8 27.8C685.7 31.3 728.3 41.7 771.2 47.3C814 53 857 54 878.5 54.5L900 55L900 101L878.5 101C857 101 814 101 771.2 101C728.3 101 685.7 101 642.8 101C600 101 557 101 514.2 101C471.3 101 428.7 101 385.8 101C343 101 300 101 257.2 101C214.3 101 171.7 101 128.8 101C86 101 43 101 21.5 101L0 101Z" fill="#1e2f63"></path><path d="M0 64L21.5 64.8C43 65.7 86 67.3 128.8 67.2C171.7 67 214.3 65 257.2 66C300 67 343 71 385.8 73C428.7 75 471.3 75 514.2 75.8C557 76.7 600 78.3 642.8 75.2C685.7 72 728.3 64 771.2 64C814 64 857 72 878.5 76L900 80L900 101L878.5 101C857 101 814 101 771.2 101C728.3 101 685.7 101 642.8 101C600 101 557 101 514.2 101C471.3 101 428.7 101 385.8 101C343 101 300 101 257.2 101C214.3 101 171.7 101 128.8 101C86 101 43 101 21.5 101L0 101Z" fill="#2f4a9c"></path></svg>